<svg xmlns="http://www.w3.org/2000/svg" version="1.1" xmlns:xlink="http://www.w3.org/1999/xlink" xmlns:svgjs="http://svgjs.dev/svgjs" width="1500" height="1347" viewBox="0 0 1500 1347"><g transform="matrix(1,0,0,1,-1.923872451941861,-2.1725806451613607)"><svg viewBox="0 0 276 248" data-background-color="#2a2a2a" preserveAspectRatio="xMidYMid meet" height="1347" width="1500" xmlns="http://www.w3.org/2000/svg" xmlns:xlink="http://www.w3.org/1999/xlink"><g id="tight-bounds" transform="matrix(1,0,0,1,0.3539925311573029,0.4000000000000057)"><svg viewBox="0 0 275.2920149376854 247.2" height="247.2" width="275.2920149376854"><g><svg viewBox="0 0 395.52000000000004 355.1593896471411" height="247.2" width="275.2920149376854"><g transform="matrix(1,0,0,1,0,233.5951478630769)"><svg viewBox="0 0 395.52000000000004 121.56424178406422" height="121.56424178406422" width="395.52000000000004"><g id="textblocktransform"><svg viewBox="0 0 395.52000000000004 121.56424178406422" height="121.56424178406422" width="395.52000000000004" id="textblock"><g><svg viewBox="0 0 395.52000000000004 80.93423076923077" height="80.93423076923077" width="395.52000000000004"><g transform="matrix(1,0,0,1,0,0)"><svg width="395.52000000000004" viewBox="2.05 -33.75 166.39 34.05" height="80.93423076923077" data-palette-color="#bab920"><path d="M3.55 0.3Q2.85 0.3 2.45-0.15 2.05-0.6 2.05-1.1L2.05-1.1Q2.05-1.7 2.25-2.35L2.25-2.35 8.85-32.5Q8.95-33.1 9.38-33.43 9.8-33.75 10.4-33.75L10.4-33.75Q10.95-33.75 11.35-33.45 11.75-33.15 11.9-32.7L11.9-32.7 20.25-6.2 29.85-32.75Q30.05-33.2 30.48-33.48 30.9-33.75 31.45-33.75L31.45-33.75Q31.95-33.75 32.35-33.4 32.75-33.05 32.85-32.5L32.85-32.5 39.55-2.5Q39.8-1.65 39.8-1.1L39.8-1.1Q39.8-0.55 39.35-0.13 38.9 0.3 38.25 0.3L38.25 0.3Q37.65 0.3 37.23-0.03 36.8-0.35 36.7-0.95L36.7-0.95 31-26.55 21.65-0.7Q21.5-0.25 21.08 0.03 20.65 0.3 20.15 0.3L20.15 0.3Q19.65 0.3 19.25 0 18.85-0.3 18.7-0.8L18.7-0.8 10.65-26.1 5.1-0.95Q5-0.35 4.58-0.03 4.15 0.3 3.55 0.3L3.55 0.3ZM56.65 0.3Q53 0.3 50.15-1.33 47.3-2.95 45.75-5.7 44.2-8.45 44.2-11.7L44.2-11.7Q44.2-15.1 45.62-18.07 47.05-21.05 49.6-22.85 52.15-24.65 55.45-24.65L55.45-24.65Q58.45-24.65 60.57-23.5 62.7-22.35 63.77-20.75 64.85-19.15 64.85-17.9L64.85-17.9Q64.85-17 63.65-16.3L63.65-16.3 48.15-7.45Q49.4-5.05 51.55-3.83 53.7-2.6 56.6-2.6L56.6-2.6Q58.2-2.6 59.97-3.4 61.75-4.2 62.8-5.3L62.8-5.3Q63.15-5.8 63.8-5.8L63.8-5.8Q64.45-5.8 64.87-5.38 65.3-4.95 65.3-4.3L65.3-4.3Q65.3-3.8 64.9-3.3L64.9-3.3Q63.55-1.75 61.22-0.73 58.9 0.3 56.65 0.3L56.65 0.3ZM61.75-18.3Q61.05-20 59.55-20.85 58.05-21.7 55.5-21.7L55.5-21.7Q53.1-21.7 51.2-20.38 49.3-19.05 48.22-16.8 47.15-14.55 47.1-11.85L47.1-11.85Q47.1-10.85 47.2-10.25L47.2-10.25 61.75-18.3ZM81.7 0.3Q78.05 0.3 75.2-1.33 72.35-2.95 70.8-5.7 69.25-8.45 69.25-11.7L69.25-11.7Q69.25-15.1 70.67-18.07 72.1-21.05 74.65-22.85 77.2-24.65 80.5-24.65L80.5-24.65Q83.5-24.65 85.62-23.5 87.75-22.35 88.82-20.75 89.9-19.15 89.9-17.9L89.9-17.9Q89.9-17 88.7-16.3L88.7-16.3 73.2-7.45Q74.45-5.05 76.6-3.83 78.75-2.6 81.65-2.6L81.65-2.6Q83.25-2.6 85.02-3.4 86.8-4.2 87.85-5.3L87.85-5.3Q88.2-5.8 88.85-5.8L88.85-5.8Q89.5-5.8 89.92-5.38 90.35-4.95 90.35-4.3L90.35-4.3Q90.35-3.8 89.95-3.3L89.95-3.3Q88.6-1.75 86.27-0.73 83.95 0.3 81.7 0.3L81.7 0.3ZM86.8-18.3Q86.1-20 84.6-20.85 83.1-21.7 80.55-21.7L80.55-21.7Q78.15-21.7 76.25-20.38 74.35-19.05 73.27-16.8 72.2-14.55 72.15-11.85L72.15-11.85Q72.15-10.85 72.25-10.25L72.25-10.25 86.8-18.3ZM97.49 0.3Q96.84 0.3 96.37-0.15 95.89-0.6 95.89-1.2L95.89-1.2 95.89-23.1Q95.89-23.7 96.37-24.18 96.84-24.65 97.49-24.65L97.49-24.65Q98.14-24.65 98.59-24.18 99.04-23.7 99.04-23.1L99.04-23.1 99.04-17.35Q100.69-20.6 103.32-22.63 105.94-24.65 108.49-24.65L108.49-24.65Q110.64-24.65 112.37-23.38 114.09-22.1 114.74-19L114.74-19Q116.54-21.9 118.79-23.28 121.04-24.65 123.24-24.65L123.24-24.65Q126.29-24.65 128.12-22.4 129.94-20.15 129.94-15.4L129.94-15.4 129.94-1.2Q129.94-0.6 129.47-0.15 128.99 0.3 128.34 0.3L128.34 0.3Q127.69 0.3 127.24-0.15 126.79-0.6 126.79-1.2L126.79-1.2 126.79-15.75Q126.79-18.85 125.79-20.28 124.79-21.7 122.84-21.7L122.84-21.7Q121.34-21.7 119.52-20.55 117.69-19.4 116.39-17.3 115.09-15.2 115.09-12.5L115.09-12.5 115.09-1.2Q115.09-0.6 114.64-0.15 114.19 0.3 113.54 0.3L113.54 0.3Q112.89 0.3 112.42-0.15 111.94-0.6 111.94-1.2L111.94-1.2 111.94-15.75Q111.94-18.9 111.04-20.3 110.14-21.7 108.09-21.7L108.09-21.7Q106.39-21.7 104.59-20.28 102.79-18.85 101.29-16.8L101.29-16.8Q99.94-14.9 99.49-13.25 99.04-11.6 99.04-8.65L99.04-8.65 99.04-1.2Q99.04-0.6 98.59-0.15 98.14 0.3 97.49 0.3L97.49 0.3ZM139.19-28.6Q138.54-28.6 138.09-29.05 137.64-29.5 137.64-30.15L137.64-30.15 137.69-32.2Q137.69-32.8 138.19-33.25 138.69-33.7 139.29-33.7L139.29-33.7Q139.89-33.7 140.34-33.23 140.79-32.75 140.79-32.15L140.79-32.15 140.74-30.1Q140.74-29.45 140.27-29.03 139.79-28.6 139.19-28.6L139.19-28.6ZM138.89 0.3Q138.24 0.3 137.74-0.18 137.24-0.65 137.24-1.3L137.24-1.3 137.54-23Q137.54-23.65 138.04-24.15 138.54-24.65 139.19-24.65L139.19-24.65Q139.84-24.65 140.31-24.18 140.79-23.7 140.79-23L140.79-23 140.49-1.3Q140.49-0.65 140.02-0.18 139.54 0.3 138.89 0.3L138.89 0.3ZM165.94 0.3Q165.19 0.3 164.79-0.15L164.79-0.15 156.44-10.45 146.69-0.2Q146.24 0.25 145.54 0.25L145.54 0.25Q144.94 0.25 144.49-0.23 144.04-0.7 144.04-1.3L144.04-1.3Q144.04-2 144.49-2.45L144.49-2.45 154.39-12.6 146.49-22.05Q146.04-22.6 146.04-23.15L146.04-23.15Q146.04-23.75 146.49-24.23 146.94-24.7 147.59-24.7L147.59-24.7Q148.29-24.7 148.69-24.25L148.69-24.25 156.59-14.6 165.74-24.15Q166.19-24.6 166.89-24.6L166.89-24.6Q167.49-24.6 167.96-24.13 168.44-23.65 168.44-23.05L168.44-23.05Q168.44-22.4 167.99-21.95L167.99-21.95 158.64-12.45 167.19-2.25Q167.49-1.8 167.49-1.25L167.49-1.25Q167.49-0.6 167.04-0.15 166.59 0.3 165.94 0.3L165.94 0.3Z" opacity="1" transform="matrix(1,0,0,1,0,0)" fill="#bab920" class="wordmark-text-0" data-fill-palette-color="primary" id="text-0"></path></svg></g></svg></g><g transform="matrix(1,0,0,1,0,100.0408602323077)"><svg viewBox="0 0 395.52000000000004 21.523381551756533" height="21.523381551756533" width="395.52000000000004"><g transform="matrix(1,0,0,1,0,0)"><svg width="395.52000000000004" viewBox="1.85 -34.05 798.4499999999999 43.449999999999996" height="21.523381551756533" data-palette-color="#bab920"><path d="M3.5 0Q2.8 0 2.33-0.45 1.85-0.9 1.85-1.55L1.85-1.55Q1.85-2.2 2.33-2.63 2.8-3.05 3.5-3.05L3.5-3.05 8.25-3.05 8.25-30.45 3.5-30.45Q2.8-30.45 2.33-30.9 1.85-31.35 1.85-32L1.85-32Q1.85-32.65 2.33-33.08 2.8-33.5 3.5-33.5L3.5-33.5 16.15-33.5Q16.8-33.5 17.25-33.08 17.7-32.65 17.7-32L17.7-32Q17.7-31.35 17.25-30.9 16.8-30.45 16.15-30.45L16.15-30.45 11.45-30.45 11.45-3.05 16.15-3.05Q16.85-3.05 17.28-2.63 17.7-2.2 17.7-1.55L17.7-1.55Q17.7-0.9 17.25-0.45 16.8 0 16.15 0L16.15 0 3.5 0ZM25.1 0.3Q24.45 0.3 23.98-0.15 23.5-0.6 23.5-1.15L23.5-1.15 23.5-23.2Q23.5-23.85 23.98-24.28 24.45-24.7 25.1-24.7L25.1-24.7Q25.75-24.7 26.2-24.28 26.65-23.85 26.65-23.2L26.65-23.2 26.65-15.3Q28.1-19.8 30.68-22.23 33.25-24.65 36.5-24.65L36.5-24.65Q39.25-24.65 40.85-23.25 42.45-21.85 43.15-18.82 43.85-15.8 43.85-10.7L43.85-10.7Q43.85-5.7 43.8-4.15L43.8-4.15 43.8-1.3Q43.8-0.65 43.38-0.18 42.95 0.3 42.3 0.3L42.3 0.3Q41.7 0.3 41.25-0.18 40.8-0.65 40.8-1.25L40.8-1.25 40.8-4.05Q40.75-5.6 40.75-10.5L40.75-10.5Q40.75-15.15 40.28-17.55 39.8-19.95 38.83-20.83 37.85-21.7 36.05-21.7L36.05-21.7Q34.35-21.7 32.7-20.45 31.05-19.2 29.8-16.9L29.8-16.9Q28.15-13.9 27.43-11.25 26.7-8.6 26.65-5.8L26.65-5.8 26.6-1.35Q26.6-0.65 26.18-0.18 25.75 0.3 25.1 0.3L25.1 0.3ZM57.55 0.4Q54.7 0.4 52.63-0.78 50.55-1.95 49.48-3.53 48.4-5.1 48.4-6.2L48.4-6.2Q48.4-6.85 48.83-7.28 49.25-7.7 49.9-7.7L49.9-7.7Q51-7.7 51.3-6.65L51.3-6.65Q52-4.65 53.65-3.55 55.3-2.45 57.7-2.45L57.7-2.45Q60.1-2.45 61.65-3.75 63.2-5.05 63.2-6.85L63.2-6.85Q63.2-7.9 62.73-8.63 62.25-9.35 61.03-10 59.8-10.65 57.45-11.35L57.45-11.35Q53.4-12.6 51.6-14.25 49.8-15.9 49.8-18.6L49.8-18.6Q49.8-21.3 52.03-22.98 54.25-24.65 58.4-24.65L58.4-24.65Q62.15-24.65 64.18-23.13 66.2-21.6 66.2-18.95L66.2-18.95Q66.2-17.75 65.8-17.13 65.4-16.5 64.65-16.5L64.65-16.5Q64-16.5 63.55-16.93 63.1-17.35 63.1-17.9L63.1-17.9Q63.1-18.15 63.18-18.45 63.25-18.75 63.25-19L63.25-19Q63.25-20.35 62.05-21.13 60.85-21.9 58.4-21.9L58.4-21.9Q55.7-21.9 54.23-21.03 52.75-20.15 52.75-18.55L52.75-18.55Q52.75-17 54.03-16.1 55.3-15.2 58.45-14.15L58.45-14.15Q61.45-13.15 63.08-12.25 64.7-11.35 65.43-10.13 66.15-8.9 66.15-7L66.15-7Q66.15-5.15 65.08-3.45 64-1.75 62.05-0.68 60.1 0.4 57.55 0.4L57.55 0.4ZM74.8 0.35Q74.15 0.35 73.68-0.1 73.2-0.55 73.2-1.15L73.2-1.15 73.2-21.55 67.65-21.55Q67-21.55 66.55-22.03 66.1-22.5 66.1-23.15L66.1-23.15Q66.1-23.85 66.6-24.28 67.1-24.7 67.75-24.7L67.75-24.7 73.2-24.7 73.2-31.55Q73.2-32.2 73.68-32.68 74.15-33.15 74.8-33.15L74.8-33.15Q75.5-33.15 75.93-32.68 76.35-32.2 76.35-31.55L76.35-31.55 76.35-24.7 81.95-24.7Q82.65-24.7 83.1-24.25 83.55-23.8 83.55-23.15L83.55-23.15Q83.55-22.5 83.08-22.03 82.6-21.55 81.95-21.55L81.95-21.55 76.35-21.55 76.35-1.15Q76.35-0.55 75.88-0.1 75.4 0.35 74.8 0.35L74.8 0.35ZM101.25 0.7Q100.5 0.7 100.1 0.23 99.7-0.25 99.7-0.95L99.7-0.95 99.7-2.35Q98.35-1.15 96.45-0.43 94.55 0.3 92.65 0.3L92.65 0.3Q89.95 0.3 87.8-1.05 85.65-2.4 84.43-4.88 83.2-7.35 83.2-10.5L83.2-10.5Q83.2-13.9 84.63-17.18 86.05-20.45 88.78-22.55 91.5-24.65 95.2-24.65L95.2-24.65Q97.5-24.65 99.25-24.05 101-23.45 102.8-22.6L102.8-22.6 102.8-0.95Q102.8-0.25 102.35 0.23 101.9 0.7 101.25 0.7L101.25 0.7ZM92.65-2.65Q94.6-2.65 96.55-3.58 98.5-4.5 99.55-5.55L99.55-5.55 99.75-20.7Q98.95-21.05 97.68-21.38 96.4-21.7 95.3-21.7L95.3-21.7Q92.85-21.7 90.8-20.25 88.75-18.8 87.58-16.28 86.4-13.75 86.4-10.6L86.4-10.6Q86.4-6.95 88.15-4.8 89.9-2.65 92.65-2.65L92.65-2.65ZM112.2 0.3Q111.55 0.3 111.08-0.15 110.6-0.6 110.6-1.15L110.6-1.15 110.6-23.2Q110.6-23.85 111.08-24.28 111.55-24.7 112.2-24.7L112.2-24.7Q112.85-24.7 113.3-24.28 113.75-23.85 113.75-23.2L113.75-23.2 113.75-15.3Q115.2-19.8 117.78-22.23 120.35-24.65 123.6-24.65L123.6-24.65Q126.35-24.65 127.95-23.25 129.55-21.85 130.25-18.82 130.95-15.8 130.95-10.7L130.95-10.7Q130.95-5.7 130.9-4.15L130.9-4.15 130.9-1.3Q130.9-0.65 130.47-0.18 130.05 0.3 129.4 0.3L129.4 0.3Q128.8 0.3 128.35-0.18 127.9-0.65 127.9-1.25L127.9-1.25 127.9-4.05Q127.85-5.6 127.85-10.5L127.85-10.5Q127.85-15.15 127.38-17.55 126.9-19.95 125.93-20.83 124.95-21.7 123.15-21.7L123.15-21.7Q121.45-21.7 119.8-20.45 118.15-19.2 116.9-16.9L116.9-16.9Q115.25-13.9 114.53-11.25 113.8-8.6 113.75-5.8L113.75-5.8 113.7-1.35Q113.7-0.65 113.28-0.18 112.85 0.3 112.2 0.3L112.2 0.3ZM141.1 0.35Q140.45 0.35 139.97-0.1 139.5-0.55 139.5-1.15L139.5-1.15 139.5-21.55 133.95-21.55Q133.3-21.55 132.85-22.03 132.4-22.5 132.4-23.15L132.4-23.15Q132.4-23.85 132.9-24.28 133.4-24.7 134.05-24.7L134.05-24.7 139.5-24.7 139.5-31.55Q139.5-32.2 139.97-32.68 140.45-33.15 141.1-33.15L141.1-33.15Q141.8-33.15 142.22-32.68 142.65-32.2 142.65-31.55L142.65-31.55 142.65-24.7 148.25-24.7Q148.95-24.7 149.4-24.25 149.85-23.8 149.85-23.15L149.85-23.15Q149.85-22.5 149.38-22.03 148.9-21.55 148.25-21.55L148.25-21.55 142.65-21.55 142.65-1.15Q142.65-0.55 142.17-0.1 141.7 0.35 141.1 0.35L141.1 0.35ZM182.85 0.35Q178.75 0.35 175.28-1.73 171.8-3.8 169.78-7.58 167.75-11.35 167.75-16.25L167.75-16.25Q167.75-20.5 169.75-24.58 171.75-28.65 175.38-31.25 179-33.85 183.65-33.85L183.65-33.85Q187.95-33.85 190.93-32.08 193.9-30.3 195.4-28 196.9-25.7 196.9-24.35L196.9-24.35Q196.9-23.7 196.47-23.33 196.05-22.95 195.35-22.95L195.35-22.95Q194.85-22.95 194.43-23.23 194-23.5 193.8-24L193.8-24Q192.75-26.8 190.28-28.73 187.8-30.65 183.65-30.65L183.65-30.65Q179.35-30.65 176.5-28.15 173.65-25.65 172.32-22.28 171-18.9 171-16.25L171-16.25Q171-12.15 172.63-9.13 174.25-6.1 176.97-4.48 179.7-2.85 182.85-2.85L182.85-2.85Q186.95-2.85 189.93-5.18 192.9-7.5 193.95-11.5L193.95-11.5 192.65-11.5Q190.1-11.5 187.5-10.85L187.5-10.85Q186.5-10.65 186.35-10.65L186.35-10.65Q185.7-10.65 185.25-11.1 184.8-11.55 184.8-12.25L184.8-12.25Q184.8-12.75 185.07-13.18 185.35-13.6 185.9-13.8L185.9-13.8Q187-14.2 188.95-14.45 190.9-14.7 192.8-14.7L192.8-14.7Q196.1-14.7 198.3-13.85L198.3-13.85Q199.3-13.55 199.3-12.35L199.3-12.35Q199.3-11.7 198.88-11.28 198.45-10.85 197.85-10.8L197.85-10.8Q197.5-10.8 197.1-10.95L197.1-10.95Q195.9-6 192.15-2.83 188.4 0.35 182.85 0.35L182.85 0.35ZM207-28.6Q206.35-28.6 205.9-29.05 205.45-29.5 205.45-30.15L205.45-30.15 205.5-32.2Q205.5-32.8 206-33.25 206.5-33.7 207.1-33.7L207.1-33.7Q207.7-33.7 208.15-33.23 208.6-32.75 208.6-32.15L208.6-32.15 208.55-30.1Q208.55-29.45 208.08-29.03 207.6-28.6 207-28.6L207-28.6ZM206.7 0.3Q206.05 0.3 205.55-0.18 205.05-0.65 205.05-1.3L205.05-1.3 205.35-23Q205.35-23.65 205.85-24.15 206.35-24.65 207-24.65L207-24.65Q207.65-24.65 208.13-24.18 208.6-23.7 208.6-23L208.6-23 208.3-1.3Q208.3-0.65 207.83-0.18 207.35 0.3 206.7 0.3L206.7 0.3ZM224.3 9.4Q221.5 9.4 218.2 8.65L218.2 8.65Q217.65 8.55 217.3 8.13 216.95 7.7 216.95 7.15L216.95 7.15Q216.95 6.5 217.43 6.05 217.9 5.6 218.55 5.6L218.55 5.6Q218.8 5.6 219.7 5.8L219.7 5.8Q221.95 6.3 224.25 6.3L224.25 6.3Q227.95 6.3 229.63 4.42 231.3 2.55 231.45-0.9L231.45-0.9 231.55-3.4Q230.25-1.65 228.5-0.73 226.75 0.2 224.75 0.25L224.75 0.25Q221.95 0.25 219.68-1.3 217.4-2.85 216.1-5.58 214.8-8.3 214.8-11.65L214.8-11.65Q214.8-15 216.38-18.03 217.95-21.05 220.65-22.88 223.35-24.7 226.65-24.7L226.65-24.7Q229.2-24.7 232-23.2L232-23.2Q232-25.25 233.55-25.25L233.55-25.25Q234.2-25.25 234.68-24.8 235.15-24.35 235.15-23.65L235.15-23.65 234.6-0.8Q234.5 4.3 231.68 6.85 228.85 9.4 224.3 9.4L224.3 9.4ZM224.35-2.75Q227.4-2.75 229.57-5.2 231.75-7.65 231.75-13.05L231.75-13.05 231.75-20.1Q230.95-20.75 229.57-21.18 228.2-21.6 226.85-21.6L226.85-21.6Q224.35-21.6 222.25-20.28 220.15-18.95 218.9-16.65 217.65-14.35 217.65-11.55L217.65-11.55Q217.65-9.55 218.38-7.5 219.1-5.45 220.63-4.1 222.15-2.75 224.35-2.75L224.35-2.75ZM250.8 9.4Q248 9.4 244.7 8.65L244.7 8.65Q244.15 8.55 243.8 8.13 243.45 7.7 243.45 7.15L243.45 7.15Q243.45 6.5 243.93 6.05 244.4 5.6 245.05 5.6L245.05 5.6Q245.3 5.6 246.2 5.8L246.2 5.8Q248.45 6.3 250.75 6.3L250.75 6.3Q254.45 6.3 256.13 4.42 257.8 2.55 257.95-0.9L257.95-0.9 258.05-3.4Q256.75-1.65 255-0.73 253.25 0.2 251.25 0.25L251.25 0.25Q248.45 0.25 246.18-1.3 243.9-2.85 242.6-5.58 241.3-8.3 241.3-11.65L241.3-11.65Q241.3-15 242.88-18.03 244.45-21.05 247.15-22.88 249.85-24.7 253.15-24.7L253.15-24.7Q255.7-24.7 258.5-23.2L258.5-23.2Q258.5-25.25 260.05-25.25L260.05-25.25Q260.7-25.25 261.18-24.8 261.65-24.35 261.65-23.65L261.65-23.65 261.1-0.8Q261 4.3 258.18 6.85 255.35 9.4 250.8 9.4L250.8 9.4ZM250.85-2.75Q253.9-2.75 256.07-5.2 258.25-7.65 258.25-13.05L258.25-13.05 258.25-20.1Q257.45-20.75 256.07-21.18 254.7-21.6 253.35-21.6L253.35-21.6Q250.85-21.6 248.75-20.28 246.65-18.95 245.4-16.65 244.15-14.35 244.15-11.55L244.15-11.55Q244.15-9.55 244.88-7.5 245.6-5.45 247.13-4.1 248.65-2.75 250.85-2.75L250.85-2.75ZM271 0.3Q270.4 0.3 269.9-0.13 269.4-0.55 269.4-1.1L269.4-1.1 269.4-32.55Q269.4-33.2 269.85-33.63 270.3-34.05 271-34.05L271-34.05Q271.6-34.05 272.07-33.6 272.55-33.15 272.55-32.55L272.55-32.55 272.55-1.1Q272.55-0.55 272.07-0.13 271.6 0.3 271 0.3L271 0.3ZM291.2 0.3Q287.55 0.3 284.7-1.33 281.85-2.95 280.3-5.7 278.75-8.45 278.75-11.7L278.75-11.7Q278.75-15.1 280.18-18.07 281.6-21.05 284.15-22.85 286.7-24.65 290-24.65L290-24.65Q293-24.65 295.13-23.5 297.25-22.35 298.32-20.75 299.4-19.15 299.4-17.9L299.4-17.9Q299.4-17 298.2-16.3L298.2-16.3 282.7-7.45Q283.95-5.05 286.1-3.83 288.25-2.6 291.15-2.6L291.15-2.6Q292.75-2.6 294.52-3.4 296.3-4.2 297.35-5.3L297.35-5.3Q297.7-5.8 298.35-5.8L298.35-5.8Q299-5.8 299.43-5.38 299.85-4.95 299.85-4.3L299.85-4.3Q299.85-3.8 299.45-3.3L299.45-3.3Q298.1-1.75 295.77-0.73 293.45 0.3 291.2 0.3L291.2 0.3ZM296.3-18.3Q295.6-20 294.1-20.85 292.6-21.7 290.05-21.7L290.05-21.7Q287.65-21.7 285.75-20.38 283.85-19.05 282.77-16.8 281.7-14.55 281.65-11.85L281.65-11.85Q281.65-10.85 281.75-10.25L281.75-10.25 296.3-18.3ZM311.8 0.4Q308.95 0.4 306.88-0.78 304.8-1.95 303.73-3.53 302.65-5.1 302.65-6.2L302.65-6.2Q302.65-6.85 303.07-7.28 303.5-7.7 304.15-7.7L304.15-7.7Q305.25-7.7 305.55-6.65L305.55-6.65Q306.25-4.65 307.9-3.55 309.55-2.45 311.95-2.45L311.95-2.45Q314.35-2.45 315.9-3.75 317.45-5.05 317.45-6.85L317.45-6.85Q317.45-7.9 316.98-8.63 316.5-9.35 315.27-10 314.05-10.65 311.7-11.35L311.7-11.35Q307.65-12.6 305.85-14.25 304.05-15.9 304.05-18.6L304.05-18.6Q304.05-21.3 306.27-22.98 308.5-24.65 312.65-24.65L312.65-24.65Q316.4-24.65 318.43-23.13 320.45-21.6 320.45-18.95L320.45-18.95Q320.45-17.75 320.05-17.13 319.65-16.5 318.9-16.5L318.9-16.5Q318.25-16.5 317.8-16.93 317.35-17.35 317.35-17.9L317.35-17.9Q317.35-18.15 317.43-18.45 317.5-18.75 317.5-19L317.5-19Q317.5-20.35 316.3-21.13 315.1-21.9 312.65-21.9L312.65-21.9Q309.95-21.9 308.48-21.03 307-20.15 307-18.55L307-18.55Q307-17 308.27-16.1 309.55-15.2 312.7-14.15L312.7-14.15Q315.7-13.15 317.32-12.25 318.95-11.35 319.68-10.13 320.4-8.9 320.4-7L320.4-7Q320.4-5.15 319.32-3.45 318.25-1.75 316.3-0.68 314.35 0.4 311.8 0.4L311.8 0.4ZM325.2 4.9Q324.65 4.9 324.25 4.53 323.85 4.15 323.85 3.6L323.85 3.6Q323.85 3.4 323.95 3.1L323.95 3.1 325.1 0.05Q324.55-0.7 324.55-1.45L324.55-1.45Q324.55-2.4 325.2-3.13 325.85-3.85 326.7-3.85L326.7-3.85Q327.45-3.85 327.98-3.3 328.5-2.75 328.5-2.1L328.5-2.1Q328.5-1.45 328.28-0.8 328.05-0.15 327.4 1.45L327.4 1.45 326.95 2.55Q326.4 4 326.1 4.45 325.8 4.9 325.2 4.9L325.2 4.9ZM362.2 0.3Q358.55 0.3 355.68-1.73 352.8-3.75 351.2-7.33 349.6-10.9 349.6-15.35L349.6-15.35Q349.6-20.35 351.6-24.6 353.6-28.85 357-31.33 360.4-33.8 364.35-33.8L364.35-33.8Q368.05-33.8 370.9-31.78 373.75-29.75 375.35-26.15 376.95-22.55 376.95-18.1L376.95-18.1Q376.95-13.1 374.95-8.88 372.95-4.65 369.55-2.18 366.15 0.3 362.2 0.3L362.2 0.3ZM362.4-2.8Q365.4-2.8 367.97-4.85 370.55-6.9 372.1-10.4 373.65-13.9 373.65-17.95L373.65-17.95Q373.65-21.7 372.4-24.6 371.15-27.5 368.97-29.1 366.8-30.7 364.1-30.7L364.1-30.7Q361.15-30.7 358.55-28.68 355.95-26.65 354.43-23.15 352.9-19.65 352.9-15.45L352.9-15.45Q352.9-11.65 354.18-8.78 355.45-5.9 357.6-4.35 359.75-2.8 362.4-2.8L362.4-2.8ZM384.85 0.3Q384.2 0.3 383.72-0.15 383.25-0.6 383.25-1.15L383.25-1.15 383.25-23.2Q383.25-23.85 383.72-24.28 384.2-24.7 384.85-24.7L384.85-24.7Q385.5-24.7 385.95-24.28 386.4-23.85 386.4-23.2L386.4-23.2 386.4-15.3Q387.85-19.8 390.42-22.23 393-24.65 396.25-24.65L396.25-24.65Q399-24.65 400.6-23.25 402.2-21.85 402.9-18.82 403.6-15.8 403.6-10.7L403.6-10.7Q403.6-5.7 403.55-4.15L403.55-4.15 403.55-1.3Q403.55-0.65 403.12-0.18 402.7 0.3 402.05 0.3L402.05 0.3Q401.45 0.3 401-0.18 400.55-0.65 400.55-1.25L400.55-1.25 400.55-4.05Q400.5-5.6 400.5-10.5L400.5-10.5Q400.5-15.15 400.02-17.55 399.55-19.95 398.57-20.83 397.6-21.7 395.8-21.7L395.8-21.7Q394.1-21.7 392.45-20.45 390.8-19.2 389.55-16.9L389.55-16.9Q387.9-13.9 387.17-11.25 386.45-8.6 386.4-5.8L386.4-5.8 386.35-1.35Q386.35-0.65 385.92-0.18 385.5 0.3 384.85 0.3L384.85 0.3ZM421.75 0.3Q418.1 0.3 415.25-1.33 412.4-2.95 410.85-5.7 409.3-8.45 409.3-11.7L409.3-11.7Q409.3-15.1 410.72-18.07 412.15-21.05 414.7-22.85 417.25-24.65 420.55-24.65L420.55-24.65Q423.55-24.65 425.67-23.5 427.8-22.35 428.87-20.75 429.95-19.15 429.95-17.9L429.95-17.9Q429.95-17 428.75-16.3L428.75-16.3 413.25-7.45Q414.5-5.05 416.65-3.83 418.8-2.6 421.7-2.6L421.7-2.6Q423.3-2.6 425.07-3.4 426.85-4.2 427.9-5.3L427.9-5.3Q428.25-5.8 428.9-5.8L428.9-5.8Q429.55-5.8 429.97-5.38 430.4-4.95 430.4-4.3L430.4-4.3Q430.4-3.8 430-3.3L430-3.3Q428.65-1.75 426.32-0.73 424 0.3 421.75 0.3L421.75 0.3ZM426.85-18.3Q426.15-20 424.65-20.85 423.15-21.7 420.6-21.7L420.6-21.7Q418.2-21.7 416.3-20.38 414.4-19.05 413.32-16.8 412.25-14.55 412.2-11.85L412.2-11.85Q412.2-10.85 412.3-10.25L412.3-10.25 426.85-18.3ZM452.3 0.3Q451.6 0.3 451.2-0.15 450.8-0.6 450.8-1.1L450.8-1.1Q450.8-1.7 451-2.35L451-2.35 457.6-32.5Q457.7-33.1 458.12-33.43 458.55-33.75 459.15-33.75L459.15-33.75Q459.7-33.75 460.1-33.45 460.5-33.15 460.65-32.7L460.65-32.7 469-6.2 478.6-32.75Q478.8-33.2 479.22-33.48 479.65-33.75 480.2-33.75L480.2-33.75Q480.7-33.75 481.1-33.4 481.5-33.05 481.6-32.5L481.6-32.5 488.3-2.5Q488.55-1.65 488.55-1.1L488.55-1.1Q488.55-0.55 488.1-0.13 487.65 0.3 487 0.3L487 0.3Q486.4 0.3 485.97-0.03 485.55-0.35 485.45-0.95L485.45-0.95 479.75-26.55 470.4-0.7Q470.25-0.25 469.82 0.03 469.4 0.3 468.9 0.3L468.9 0.3Q468.4 0.3 468 0 467.6-0.3 467.45-0.8L467.45-0.8 459.4-26.1 453.85-0.95Q453.75-0.35 453.32-0.03 452.9 0.3 452.3 0.3L452.3 0.3ZM505.4 0.3Q501.75 0.3 498.9-1.33 496.05-2.95 494.5-5.7 492.95-8.45 492.95-11.7L492.95-11.7Q492.95-15.1 494.38-18.07 495.8-21.05 498.35-22.85 500.9-24.65 504.2-24.65L504.2-24.65Q507.2-24.65 509.32-23.5 511.45-22.35 512.52-20.75 513.6-19.15 513.6-17.9L513.6-17.9Q513.6-17 512.4-16.3L512.4-16.3 496.9-7.45Q498.15-5.05 500.3-3.83 502.45-2.6 505.35-2.6L505.35-2.6Q506.95-2.6 508.72-3.4 510.5-4.2 511.55-5.3L511.55-5.3Q511.9-5.8 512.55-5.8L512.55-5.8Q513.2-5.8 513.63-5.38 514.05-4.95 514.05-4.3L514.05-4.3Q514.05-3.8 513.65-3.3L513.65-3.3Q512.3-1.75 509.97-0.73 507.65 0.3 505.4 0.3L505.4 0.3ZM510.5-18.3Q509.8-20 508.3-20.85 506.8-21.7 504.25-21.7L504.25-21.7Q501.85-21.7 499.95-20.38 498.05-19.05 496.97-16.8 495.9-14.55 495.85-11.85L495.85-11.85Q495.85-10.85 495.95-10.25L495.95-10.25 510.5-18.3ZM521.2 0.3Q520.55 0.3 520.07-0.15 519.6-0.6 519.6-1.2L519.6-1.2 519.6-23.1Q519.6-23.7 520.07-24.18 520.55-24.65 521.2-24.65L521.2-24.65Q521.85-24.65 522.3-24.18 522.75-23.7 522.75-23.1L522.75-23.1 522.75-17.35Q524.4-20.6 527.02-22.63 529.65-24.65 532.2-24.65L532.2-24.65Q534.35-24.65 536.07-23.38 537.8-22.1 538.45-19L538.45-19Q540.25-21.9 542.5-23.28 544.75-24.65 546.95-24.65L546.95-24.65Q550-24.65 551.82-22.4 553.65-20.15 553.65-15.4L553.65-15.4 553.65-1.2Q553.65-0.6 553.17-0.15 552.7 0.3 552.05 0.3L552.05 0.3Q551.4 0.3 550.95-0.15 550.5-0.6 550.5-1.2L550.5-1.2 550.5-15.75Q550.5-18.85 549.5-20.28 548.5-21.7 546.55-21.7L546.55-21.7Q545.05-21.7 543.22-20.55 541.4-19.4 540.1-17.3 538.8-15.2 538.8-12.5L538.8-12.5 538.8-1.2Q538.8-0.6 538.35-0.15 537.9 0.3 537.25 0.3L537.25 0.3Q536.6 0.3 536.12-0.15 535.65-0.6 535.65-1.2L535.65-1.2 535.65-15.75Q535.65-18.9 534.75-20.3 533.85-21.7 531.8-21.7L531.8-21.7Q530.1-21.7 528.3-20.28 526.5-18.85 525-16.8L525-16.8Q523.65-14.9 523.2-13.25 522.75-11.6 522.75-8.65L522.75-8.65 522.75-1.2Q522.75-0.6 522.3-0.15 521.85 0.3 521.2 0.3L521.2 0.3ZM571.8 0.3Q568.15 0.3 565.3-1.33 562.45-2.95 560.9-5.7 559.35-8.45 559.35-11.7L559.35-11.7Q559.35-15.1 560.77-18.07 562.2-21.05 564.75-22.85 567.3-24.65 570.6-24.65L570.6-24.65Q573.6-24.65 575.72-23.5 577.85-22.35 578.92-20.75 580-19.15 580-17.9L580-17.9Q580-17 578.8-16.3L578.8-16.3 563.3-7.45Q564.55-5.05 566.7-3.83 568.85-2.6 571.75-2.6L571.75-2.6Q573.35-2.6 575.13-3.4 576.9-4.2 577.95-5.3L577.95-5.3Q578.3-5.8 578.95-5.8L578.95-5.8Q579.6-5.8 580.02-5.38 580.45-4.95 580.45-4.3L580.45-4.3Q580.45-3.8 580.05-3.3L580.05-3.3Q578.7-1.75 576.38-0.73 574.05 0.3 571.8 0.3L571.8 0.3ZM576.9-18.3Q576.2-20 574.7-20.85 573.2-21.7 570.65-21.7L570.65-21.7Q568.25-21.7 566.35-20.38 564.45-19.05 563.38-16.8 562.3-14.55 562.25-11.85L562.25-11.85Q562.25-10.85 562.35-10.25L562.35-10.25 576.9-18.3ZM619.15 0.7Q618.4 0.7 618 0.23 617.6-0.25 617.6-0.95L617.6-0.95 617.6-2.35Q616.25-1.15 614.35-0.43 612.45 0.3 610.55 0.3L610.55 0.3Q607.85 0.3 605.7-1.05 603.55-2.4 602.32-4.88 601.1-7.35 601.1-10.5L601.1-10.5Q601.1-13.9 602.52-17.18 603.95-20.45 606.67-22.55 609.4-24.65 613.1-24.65L613.1-24.65Q615.4-24.65 617.15-24.05 618.9-23.45 620.7-22.6L620.7-22.6 620.7-0.95Q620.7-0.25 620.25 0.23 619.8 0.7 619.15 0.7L619.15 0.7ZM610.55-2.65Q612.5-2.65 614.45-3.58 616.4-4.5 617.45-5.55L617.45-5.55 617.65-20.7Q616.85-21.05 615.57-21.38 614.3-21.7 613.2-21.7L613.2-21.7Q610.75-21.7 608.7-20.25 606.65-18.8 605.47-16.28 604.3-13.75 604.3-10.6L604.3-10.6Q604.3-6.95 606.05-4.8 607.8-2.65 610.55-2.65L610.55-2.65ZM631.35 0.35Q630.7 0.35 630.22-0.1 629.75-0.55 629.75-1.15L629.75-1.15 629.75-21.55 624.2-21.55Q623.55-21.55 623.1-22.03 622.65-22.5 622.65-23.15L622.65-23.15Q622.65-23.85 623.15-24.28 623.65-24.7 624.3-24.7L624.3-24.7 629.75-24.7 629.75-31.55Q629.75-32.2 630.22-32.68 630.7-33.15 631.35-33.15L631.35-33.15Q632.05-33.15 632.47-32.68 632.9-32.2 632.9-31.55L632.9-31.55 632.9-24.7 638.5-24.7Q639.2-24.7 639.65-24.25 640.1-23.8 640.1-23.15L640.1-23.15Q640.1-22.5 639.62-22.03 639.15-21.55 638.5-21.55L638.5-21.55 632.9-21.55 632.9-1.15Q632.9-0.55 632.42-0.1 631.95 0.35 631.35 0.35L631.35 0.35ZM675.95 0.7Q675.2 0.7 674.8 0.23 674.4-0.25 674.4-0.95L674.4-0.95 674.4-2.35Q673.05-1.15 671.15-0.43 669.25 0.3 667.35 0.3L667.35 0.3Q664.65 0.3 662.5-1.05 660.35-2.4 659.12-4.88 657.9-7.35 657.9-10.5L657.9-10.5Q657.9-13.9 659.32-17.18 660.75-20.45 663.47-22.55 666.2-24.65 669.9-24.65L669.9-24.65Q672.2-24.65 673.95-24.05 675.7-23.45 677.5-22.6L677.5-22.6 677.5-0.95Q677.5-0.25 677.05 0.23 676.6 0.7 675.95 0.7L675.95 0.7ZM667.35-2.65Q669.3-2.65 671.25-3.58 673.2-4.5 674.25-5.55L674.25-5.55 674.45-20.7Q673.65-21.05 672.37-21.38 671.1-21.7 670-21.7L670-21.7Q667.55-21.7 665.5-20.25 663.45-18.8 662.27-16.28 661.1-13.75 661.1-10.6L661.1-10.6Q661.1-6.95 662.85-4.8 664.6-2.65 667.35-2.65L667.35-2.65ZM711.15 0.3Q710.5 0.3 710.05-0.18 709.6-0.65 709.6-1.3L709.6-1.3 709.6-30.35 700.15-30.35Q699.5-30.35 699.02-30.8 698.55-31.25 698.55-31.9L698.55-31.9Q698.55-32.55 699.02-33.02 699.5-33.5 700.15-33.5L700.15-33.5 722.2-33.5Q722.85-33.5 723.3-33.05 723.75-32.6 723.75-31.9L723.75-31.9Q723.75-31.25 723.3-30.8 722.85-30.35 722.2-30.35L722.2-30.35 712.75-30.35 712.75-1.3Q712.75-0.65 712.27-0.18 711.8 0.3 711.15 0.3L711.15 0.3ZM730.05-28.6Q729.4-28.6 728.95-29.05 728.5-29.5 728.5-30.15L728.5-30.15 728.55-32.2Q728.55-32.8 729.05-33.25 729.55-33.7 730.15-33.7L730.15-33.7Q730.75-33.7 731.2-33.23 731.65-32.75 731.65-32.15L731.65-32.15 731.6-30.1Q731.6-29.45 731.12-29.03 730.65-28.6 730.05-28.6L730.05-28.6ZM729.75 0.3Q729.1 0.3 728.6-0.18 728.1-0.65 728.1-1.3L728.1-1.3 728.4-23Q728.4-23.65 728.9-24.15 729.4-24.65 730.05-24.65L730.05-24.65Q730.7-24.65 731.17-24.18 731.65-23.7 731.65-23L731.65-23 731.35-1.3Q731.35-0.65 730.87-0.18 730.4 0.3 729.75 0.3L729.75 0.3ZM741.05 0.3Q740.4 0.3 739.92-0.15 739.45-0.6 739.45-1.2L739.45-1.2 739.45-23.1Q739.45-23.7 739.92-24.18 740.4-24.65 741.05-24.65L741.05-24.65Q741.7-24.65 742.15-24.18 742.6-23.7 742.6-23.1L742.6-23.1 742.6-17.35Q744.25-20.6 746.88-22.63 749.5-24.65 752.05-24.65L752.05-24.65Q754.2-24.65 755.92-23.38 757.65-22.1 758.3-19L758.3-19Q760.1-21.9 762.35-23.28 764.6-24.65 766.8-24.65L766.8-24.65Q769.85-24.65 771.67-22.4 773.5-20.15 773.5-15.4L773.5-15.4 773.5-1.2Q773.5-0.6 773.02-0.15 772.55 0.3 771.9 0.3L771.9 0.3Q771.25 0.3 770.8-0.15 770.35-0.6 770.35-1.2L770.35-1.2 770.35-15.75Q770.35-18.85 769.35-20.28 768.35-21.7 766.4-21.7L766.4-21.7Q764.9-21.7 763.07-20.55 761.25-19.4 759.95-17.3 758.65-15.2 758.65-12.5L758.65-12.5 758.65-1.2Q758.65-0.6 758.2-0.15 757.75 0.3 757.1 0.3L757.1 0.3Q756.45 0.3 755.97-0.15 755.5-0.6 755.5-1.2L755.5-1.2 755.5-15.75Q755.5-18.9 754.6-20.3 753.7-21.7 751.65-21.7L751.65-21.7Q749.95-21.7 748.15-20.28 746.35-18.85 744.85-16.8L744.85-16.8Q743.5-14.9 743.05-13.25 742.6-11.6 742.6-8.65L742.6-8.65 742.6-1.2Q742.6-0.6 742.15-0.15 741.7 0.3 741.05 0.3L741.05 0.3ZM791.65 0.3Q788 0.3 785.15-1.33 782.3-2.95 780.75-5.7 779.2-8.45 779.2-11.7L779.2-11.7Q779.2-15.1 780.63-18.07 782.05-21.05 784.6-22.85 787.15-24.65 790.45-24.65L790.45-24.65Q793.45-24.65 795.57-23.5 797.7-22.35 798.77-20.75 799.85-19.15 799.85-17.9L799.85-17.9Q799.85-17 798.65-16.3L798.65-16.3 783.15-7.45Q784.4-5.05 786.55-3.83 788.7-2.6 791.6-2.6L791.6-2.6Q793.2-2.6 794.98-3.4 796.75-4.2 797.8-5.3L797.8-5.3Q798.15-5.8 798.8-5.8L798.8-5.8Q799.45-5.8 799.88-5.38 800.3-4.95 800.3-4.3L800.3-4.3Q800.3-3.8 799.9-3.3L799.9-3.3Q798.55-1.75 796.23-0.73 793.9 0.3 791.65 0.3L791.65 0.3ZM796.75-18.3Q796.05-20 794.55-20.85 793.05-21.7 790.5-21.7L790.5-21.7Q788.1-21.7 786.2-20.38 784.3-19.05 783.23-16.8 782.15-14.55 782.1-11.85L782.1-11.85Q782.1-10.85 782.2-10.25L782.2-10.25 796.75-18.3Z" opacity="1" transform="matrix(1,0,0,1,0,0)" fill="#bab920" class="slogan-text-1" data-fill-palette-color="secondary" id="text-1"></path></svg></g></svg></g></svg></g></svg></g><g transform="matrix(1,0,0,1,90.51574080000003,0)"><svg viewBox="0 0 214.48851839999998 214.48851839999998" height="214.48851839999998" width="214.48851839999998"><g><svg></svg></g><g id="icon-0"><svg viewBox="0 0 214.48851839999998 214.48851839999998" height="214.48851839999998" width="214.48851839999998"><g><rect width="195.02567136" height="195.02567136" x="9.731423519999993" y="9.731423519999993" fill="#9aca40" data-fill-palette-color="accent"></rect><rect width="195.02567136" height="195.02567136" x="-5.329070518200751e-15" y="19.462847039999993" fill="#9aca40" opacity="0.5" data-fill-palette-color="accent"></rect></g><g transform="matrix(1,0,0,1,27.80406719999999,33.19028476836118)"><svg viewBox="0 0 158.880384 148.1079488632776" height="148.1079488632776" width="158.880384"><g><svg xmlns="http://www.w3.org/2000/svg" data-name="Layer 1" viewBox="9.36050715119565 12.03569175889989 81.30949284880435 75.79653262261597" x="0" y="0" height="148.1079488632776" width="158.880384" class="icon-dxe-0" data-fill-palette-color="quaternary" id="dxe-0"><path d="M90.56 29C90.56 28.88 90.49 28.77 90.46 28.66A4 4 0 0 0 90.33 28.25 4 4 0 0 0 90.13 27.87C90.07 27.77 90.03 27.66 89.96 27.56A4 4 0 0 0 89.46 26.95L75.86 13.35A4 4 0 1 0 70.21 19L77 25.79H55.31A4 4 0 0 0 52.39 27.06L36.46 44.14 16.29 22.53A4 4 0 0 0 10.44 28L31 50 10.44 72A4 4 0 0 0 16.29 77.46L36.46 55.86 52.39 72.93A4 4 0 0 0 55.31 74.2H77L70.21 81A4 4 0 1 0 75.87 86.66L89.46 73A4 4 0 0 0 89.96 72.39C90.02 72.29 90.07 72.19 90.12 72.09A2.4 2.4 0 0 0 90.45 71.3C90.45 71.19 90.53 71.08 90.55 70.96A4 4 0 0 0 90.55 69.39C90.55 69.27 90.48 69.16 90.45 69.05A4 4 0 0 0 90.32 68.64 4 4 0 0 0 90.12 68.25C90.06 68.15 90.02 68.04 89.96 67.95A4 4 0 0 0 89.46 67.34L75.86 53.74A4 4 0 0 0 70.2 59.4L77 66.2H57.05L41.93 50 57.05 33.79H77L70.23 40.56A4 4 0 1 0 75.89 46.22L89.49 32.62A4 4 0 0 0 90 32C90.06 31.9 90.11 31.8 90.16 31.7A2.4 2.4 0 0 0 90.49 30.91C90.49 30.8 90.57 30.69 90.59 30.57A4 4 0 0 0 90.67 29.79 4 4 0 0 0 90.56 29" fill="#353535" data-fill-palette-color="quaternary"></path></svg></g></svg></g></svg></g></svg></g><g></g></svg></g><defs></defs></svg><rect width="275.2920149376854" height="247.2" fill="none" stroke="none" visibility="hidden"></rect></g></svg></g></svg>